PathFileType	4	(X/Y/Z) flx_0kg_1.trc																										
DataRate	CameraRate	NumFrames	NumMarkers	Units	OrigDataRate	OrigDataStartFrame	OrigNumFrames																					
100	100	29	9	mm	100	596	794																					
Frame#	Time	gu			centelbow			EpL			centpxt8			centijc7			ij			ts			aa			ai		
		X1	Y1	Z1	X2	Y2	Z2	X3	Y3	Z3	X4	Y4	Z4	X5	Y5	Z5	X6	Y6	Z6	X7	Y7	Z7	X8	Y8	Z8	X9	Y9	Z9  
595	5.95	-70.68	-15.73	166.034	-106.18	-258.644	192.81	-84.201	-255.224	216.148	-46.816	-153.158	-8.669	-46.816	31.938	-8.669	0	0	0	-138.46	23.21	55.624	-102.281	17.799	169.143	-149.292	-89.731	59.169
596	5.96	-70.458	-16.134	166.197	-107.516	-258.928	191.935	-85.585	-255.731	215.35	-46.816	-153.158	-8.669	-46.816	31.938	-8.669	0	0	0	-138.207	23.424	55.338	-102.113	17.899	168.879	-149.076	-89.517	58.773
597	5.97	-70.278	-16.566	166.701	-108.779	-259.25	191.335	-86.882	-256.277	214.811	-46.816	-153.158	-8.669	-46.816	31.938	-8.669	0	0	0	-138.046	23.326	55.518	-102.109	17.658	169.102	-149.031	-89.607	58.831
598	5.98	-70.021	-16.85	167.243	-109.805	-259.432	190.806	-87.933	-256.669	214.331	-46.816	-153.158	-8.669	-46.816	31.938	-8.669	0	0	0	-137.926	23.139	56.031	-102.18	17.303	169.666	-149.045	-89.785	59.2
599	5.99	-69.746	-16.638	167.258	-110.549	-259.144	189.849	-88.693	-256.56	213.409	-46.816	-153.158	-8.669	-46.816	31.938	-8.669	0	0	0	-137.778	23.173	56.313	-102.174	17.159	169.984	-148.985	-89.747	59.318
600	6	-69.499	-16.141	166.805	-111.121	-258.59	188.49	-89.284	-256.162	212.084	-46.816	-153.158	-8.669	-46.816	31.938	-8.669	0	0	0	-137.604	23.475	56.13	-102.068	17.295	169.813	-148.851	-89.445	58.975
601	6.01	-69.14	-16.032	166.502	-111.593	-258.415	187.297	-89.796	-256.135	210.943	-46.816	-153.158	-8.669	-46.816	31.938	-8.669	0	0	0	-137.401	23.829	55.811	-101.895	17.515	169.496	-148.681	-89.091	58.529
602	6.02	-68.73	-16.487	166.644	-112.087	-258.784	186.567	-90.358	-256.652	210.289	-46.816	-153.158	-8.669	-46.816	31.938	-8.669	0	0	0	-137.224	24.021	55.714	-101.749	17.595	169.402	-148.552	-88.897	58.334
603	6.03	-68.554	-17.112	167.02	-112.801	-259.313	186.13	-91.157	-257.317	209.942	-46.816	-153.158	-8.669	-46.816	31.938	-8.669	0	0	0	-137.166	24.028	55.873	-101.726	17.488	169.566	-148.56	-88.885	58.397
604	6.04	-68.638	-17.646	167.33	-113.696	-259.752	185.733	-92.146	-257.872	209.64	-46.816	-153.158	-8.669	-46.816	31.938	-8.669	0	0	0	-137.187	23.956	56.079	-101.779	17.297	169.774	-148.663	-88.952	58.508
605	6.05	-68.7	-18.118	167.4	-114.435	-260.141	185.221	-92.98	-258.353	209.22	-46.816	-153.158	-8.669	-46.816	31.938	-8.669	0	0	0	-137.175	23.906	56.098	-101.779	17.149	169.791	-148.715	-88.996	58.448
606	6.06	-68.576	-18.571	167.338	-114.802	-260.535	184.69	-93.439	-258.813	208.775	-46.816	-153.158	-8.669	-46.816	31.938	-8.669	0	0	0	-137.144	23.981	55.874	-101.741	17.16	169.562	-148.692	-88.922	58.164
607	6.07	-68.324	-18.948	167.45	-114.883	-260.875	184.418	-93.607	-259.198	208.583	-46.816	-153.158	-8.669	-46.816	31.938	-8.669	0	0	0	-137.124	24.264	55.549	-101.71	17.412	169.231	-148.623	-88.645	57.794
608	6.08	-67.961	-19.155	167.741	-114.729	-261.063	184.411	-93.52	-259.417	208.637	-46.816	-153.158	-8.669	-46.816	31.938	-8.669	0	0	0	-137.005	24.593	55.287	-101.587	17.741	168.968	-148.452	-88.321	57.516
609	6.09	-67.429	-19.318	168.024	-114.302	-261.219	184.491	-93.121	-259.596	208.743	-46.816	-153.158	-8.669	-46.816	31.938	-8.669	0	0	0	-136.721	24.575	55.252	-101.326	17.736	168.941	-148.172	-88.338	57.492
610	6.1	-66.801	-19.664	168.394	-113.695	-261.571	184.71	-92.504	-259.967	208.954	-46.816	-153.158	-8.669	-46.816	31.938	-8.669	0	0	0	-136.384	24.171	55.562	-101.063	17.348	169.275	-147.875	-88.738	57.822
611	6.11	-66.215	-20	168.87	-113.001	-261.937	185.053	-91.774	-260.346	209.267	-46.816	-153.158	-8.669	-46.816	31.938	-8.669	0	0	0	-136.132	23.933	55.982	-100.894	17.148	169.723	-147.592	-88.979	58.262
612	6.12	-65.678	-19.935	169.088	-112.188	-261.93	185.193	-90.91	-260.336	209.362	-46.816	-153.158	-8.669	-46.816	31.938	-8.669	0	0	0	-135.959	24.259	56.016	-100.741	17.555	169.768	-147.275	-88.666	58.328
613	6.13	-65.168	-19.582	168.886	-111.354	-261.64	184.979	-90.014	-260.035	209.093	-46.816	-153.158	-8.669	-46.816	31.938	-8.669	0	0	0	-135.85	24.817	55.587	-100.589	18.211	169.332	-146.987	-88.125	57.944
614	6.14	-64.756	-19.392	168.529	-110.739	-261.49	184.605	-89.336	-259.884	208.662	-46.816	-153.158	-8.669	-46.816	31.938	-8.669	0	0	0	-135.853	25.062	55.161	-100.554	18.518	168.897	-146.879	-87.891	57.549
615	6.15	-64.487	-19.503	168.283	-110.421	-261.617	184.263	-88.961	-260.031	208.271	-46.816	-153.158	-8.669	-46.816	31.938	-8.669	0	0	0	-135.902	24.898	55.126	-100.615	18.354	168.866	-146.904	-88.057	57.506
616	6.16	-64.321	-19.77	168.266	-110.28	-261.891	184.06	-88.773	-260.337	208.028	-46.816	-153.158	-8.669	-46.816	31.938	-8.669	0	0	0	-135.871	24.532	55.497	-100.651	17.942	169.256	-146.891	-88.423	57.831
617	6.17	-64.16	-20.111	168.461	-110.159	-262.241	184.006	-88.611	-260.725	207.94	-46.816	-153.158	-8.669	-46.816	31.938	-8.669	0	0	0	-135.749	24.156	56.036	-100.627	17.506	169.821	-146.779	-88.799	58.302
618	6.18	-63.864	-20.444	168.613	-109.893	-262.584	183.895	-88.304	-261.108	207.794	-46.816	-153.158	-8.669	-46.816	31.938	-8.669	0	0	0	-135.588	23.943	56.356	-100.551	17.237	170.164	-146.593	-89.016	58.551
619	6.19	-63.393	-20.588	168.468	-109.386	-262.749	183.537	-87.749	-261.301	207.395	-46.816	-153.158	-8.669	-46.816	31.938	-8.669	0	0	0	-135.513	23.973	56.234	-100.515	17.236	170.052	-146.454	-88.993	58.373
620	6.2	-62.948	-20.476	168.103	-108.767	-262.678	183.04	-87.086	-261.24	206.858	-46.816	-153.158	-8.669	-46.816	31.938	-8.669	0	0	0	-135.642	24.211	55.839	-100.67	17.48	169.665	-146.496	-88.764	57.954
621	6.21	-62.815	-20.217	167.741	-108.302	-262.486	182.619	-86.587	-261.032	206.406	-46.816	-153.158	-8.669	-46.816	31.938	-8.669	0	0	0	-135.861	24.516	55.459	-100.945	17.823	169.305	-146.617	-88.468	57.575
622	6.22	-63.064	-19.937	167.518	-108.106	-262.289	182.381	-86.376	-260.801	206.15	-46.816	-153.158	-8.669	-46.816	31.938	-8.669	0	0	0	-135.927	24.632	55.265	-101.107	17.98	169.143	-146.615	-88.358	57.391
623	6.23	-63.497	-19.686	167.481	-108.053	-262.13	182.308	-86.33	-260.601	206.082	-46.816	-153.158	-8.669	-46.816	31.938	-8.669	0	0	0	-135.789	24.445	55.326	-101.089	17.81	169.241	-146.466	-88.547	57.454
